<svg width="87" height="71" viewBox="0 0 87 71" fill="none" xmlns="http://www.w3.org/2000/svg">
<path d="M4.7789 71C3.93495 71 3.17275 70.8491 2.49231 70.5474C1.81714 70.2404 1.26066 69.804 0.822858 69.2383C0.39033 68.6672 0.116044 67.9884 0 67.2018L2.24703 66.8624C2.40528 67.5304 2.73231 68.0449 3.22813 68.4059C3.72396 68.7669 4.28835 68.9474 4.92132 68.9474C5.27473 68.9474 5.61759 68.8908 5.94989 68.7776C6.2822 68.6645 6.55385 68.4975 6.76484 68.2766C6.9811 68.0557 7.08923 67.7836 7.08923 67.4604C7.08923 67.3419 7.07077 67.2287 7.03385 67.121C7.0022 67.0078 6.94682 66.9028 6.8677 66.8058C6.78858 66.7088 6.67517 66.6173 6.52748 66.5311C6.38506 66.4448 6.20308 66.3667 5.98154 66.2967L3.02242 65.4078C2.80088 65.3431 2.54242 65.2515 2.24703 65.133C1.95692 65.0145 1.67473 64.8448 1.40044 64.6239C1.12615 64.403 0.896704 64.1121 0.712088 63.7511C0.532748 63.3847 0.443077 62.9241 0.443077 62.3692C0.443077 61.588 0.635605 60.9388 1.02066 60.4216C1.40571 59.9044 1.92 59.5192 2.56352 59.266C3.20703 59.0128 3.91912 58.8888 4.69978 58.8942C5.48572 58.905 6.18726 59.0424 6.8044 59.3064C7.42154 59.5704 7.93847 59.9556 8.35517 60.462C8.77187 60.963 9.07253 61.5772 9.25715 62.3045L6.93099 62.7086C6.8466 62.3315 6.69099 62.0136 6.46418 61.755C6.23737 61.4964 5.96572 61.2998 5.64923 61.1651C5.33802 61.0304 5.01099 60.9577 4.66813 60.9469C4.33055 60.9361 4.01143 60.9846 3.71077 61.0923C3.41539 61.1947 3.17275 61.3456 2.98286 61.5449C2.79824 61.7442 2.70594 61.9813 2.70594 62.2561C2.70594 62.5093 2.78242 62.7167 2.93539 62.8783C3.08835 63.0345 3.28088 63.1612 3.51297 63.2581C3.74506 63.3551 3.98242 63.4359 4.22506 63.5006L6.20308 64.0501C6.49846 64.1309 6.8255 64.2387 7.18418 64.3733C7.54286 64.5026 7.88572 64.6858 8.21275 64.9229C8.54506 65.1545 8.81671 65.4616 9.0277 65.8441C9.24396 66.2267 9.35209 66.7115 9.35209 67.2988C9.35209 67.9237 9.22286 68.4706 8.9644 68.9393C8.71121 69.4026 8.36836 69.7878 7.93583 70.0949C7.5033 70.3966 7.01275 70.6229 6.46418 70.7737C5.92088 70.9246 5.35912 71 4.7789 71Z" fill="#0F011E"/>
<path d="M11.0753 70.7576L11.0911 59.1205H13.2749V66.232L16.1707 62.0298H18.8292L15.7435 66.3937L19.0349 70.7576H16.234L13.2749 66.5553V70.7576H11.0753Z" fill="#0F011E"/>
<path d="M19.9805 60.8176V58.8781H22.1326V60.8176H19.9805ZM19.9805 70.7576V62.0298H22.1326V70.7576H19.9805Z" fill="#0F011E"/>
<path d="M24.6629 70.7576V58.8781H26.8149V70.7576H24.6629Z" fill="#0F011E"/>
<path d="M29.3452 70.7576V58.8781H31.4973V70.7576H29.3452Z" fill="#0F011E"/>
<path d="M36.2588 70.7576L32.9199 59.1205H35.1827L37.319 67.121L39.4553 59.1367L41.7181 59.1205L43.8544 67.121L45.9906 59.1205H48.2535L44.9146 70.7576H42.7942L40.5867 62.9026L38.3792 70.7576H36.2588Z" fill="#0F011E"/>
<path d="M52.5527 71C51.6771 71 50.9044 70.8087 50.2345 70.4262C49.5699 70.0383 49.0477 69.5077 48.6679 68.8342C48.2934 68.1554 48.1061 67.3796 48.1061 66.5068C48.1061 65.5532 48.2908 64.7235 48.66 64.0178C49.0292 63.312 49.5382 62.7652 50.187 62.3773C50.8358 61.984 51.5822 61.7873 52.4261 61.7873C53.3228 61.7873 54.085 62.0028 54.7127 62.4338C55.3404 62.8648 55.8046 63.4709 56.1053 64.2521C56.4059 65.0333 56.5114 65.9519 56.4217 67.0078H54.2934V66.1997C54.2934 65.3108 54.1536 64.6724 53.8741 64.2845C53.5998 63.8912 53.1488 63.6945 52.5211 63.6945C51.7879 63.6945 51.2472 63.9235 50.8991 64.3814C50.5562 64.834 50.3848 65.5047 50.3848 66.3937C50.3848 67.2072 50.5562 67.8375 50.8991 68.2847C51.2472 68.7265 51.7562 68.9474 52.4261 68.9474C52.8481 68.9474 53.2094 68.8531 53.5101 68.6645C53.8108 68.4759 54.0402 68.2039 54.1984 67.8483L56.3505 68.4786C56.0288 69.276 55.5198 69.8956 54.8235 70.3373C54.1325 70.7791 53.3756 71 52.5527 71ZM49.7202 67.0078V65.3754H55.3853V67.0078H49.7202Z" fill="#0F011E"/>
<path d="M60.4274 71C59.8155 71 59.2959 70.8815 58.8687 70.6444C58.4467 70.402 58.1249 70.0814 57.9034 69.6828C57.6871 69.2787 57.579 68.8342 57.579 68.3493C57.579 67.9453 57.6397 67.5762 57.761 67.2422C57.8823 66.9082 58.0775 66.6146 58.3465 66.3613C58.6208 66.1027 58.9874 65.8872 59.4463 65.7148C59.7628 65.5963 60.1399 65.4913 60.5777 65.3997C61.0155 65.3081 61.5113 65.2219 62.0652 65.1411C62.619 65.0549 63.2282 64.9606 63.8929 64.8582L63.1175 65.2946C63.1175 64.7774 62.9962 64.3976 62.7535 64.1552C62.5109 63.9127 62.1047 63.7915 61.5351 63.7915C61.2186 63.7915 60.8889 63.8696 60.546 64.0259C60.2032 64.1821 59.9632 64.4595 59.826 64.8582L57.8797 64.2279C58.0959 63.506 58.5021 62.9187 59.0981 62.4662C59.6942 62.0136 60.5065 61.7873 61.5351 61.7873C62.2893 61.7873 62.9592 61.9059 63.5447 62.1429C64.1302 62.38 64.5733 62.7894 64.874 63.3713C65.0428 63.6945 65.143 64.0178 65.1746 64.341C65.2063 64.6643 65.2221 65.0252 65.2221 65.4239V70.7576H63.339V68.9635L63.608 69.3353C63.1913 69.9225 62.7403 70.3481 62.2551 70.6121C61.7751 70.8707 61.1658 71 60.4274 71ZM60.8863 69.2706C61.2819 69.2706 61.6142 69.2006 61.8832 69.0605C62.1575 68.915 62.3737 68.7507 62.532 68.5675C62.6955 68.3844 62.8063 68.2308 62.8643 68.1069C62.9751 67.8699 63.0384 67.5951 63.0542 67.2826C63.0753 66.9647 63.0858 66.7008 63.0858 66.4906L63.7188 66.6523C63.0806 66.76 62.5636 66.8516 62.168 66.927C61.7724 66.9971 61.4533 67.0617 61.2107 67.121C60.968 67.1802 60.7544 67.2449 60.5698 67.3149C60.3588 67.4011 60.1874 67.4954 60.0555 67.5978C59.9289 67.6948 59.834 67.8025 59.7707 67.921C59.7126 68.0396 59.6836 68.1716 59.6836 68.317C59.6836 68.5164 59.7311 68.6888 59.826 68.8342C59.9263 68.9743 60.066 69.082 60.2454 69.1575C60.4247 69.2329 60.6384 69.2706 60.8863 69.2706Z" fill="#0F011E"/>
<path d="M67.4376 70.7576V58.8781H69.5897V70.7576H67.4376Z" fill="#0F011E"/>
<path d="M77.0888 70.7576C76.498 70.8707 75.9178 70.9192 75.3481 70.903C74.7837 70.8923 74.2773 70.7926 73.829 70.604C73.3859 70.4101 73.0483 70.1003 72.8162 69.6747C72.6052 69.276 72.4945 68.8719 72.4839 68.4625C72.4734 68.0476 72.4681 67.5789 72.4681 67.0563V59.6054H74.6202V66.927C74.6202 67.2664 74.6228 67.5735 74.6281 67.8483C74.6386 68.1177 74.694 68.3332 74.7942 68.4948C74.9841 68.8019 75.2874 68.9689 75.7041 68.9958C76.1208 69.0228 76.5824 69.0012 77.0888 68.9312V70.7576ZM71.0123 63.7268V62.0298H77.0888V63.7268H71.0123Z" fill="#0F011E"/>
<path d="M84.8163 70.7576V66.6361C84.8163 66.4368 84.8057 66.1836 84.7846 65.8765C84.7635 65.564 84.6976 65.2515 84.5868 64.939C84.4761 64.6266 84.2941 64.3653 84.0409 64.1552C83.793 63.945 83.4396 63.84 82.9807 63.84C82.796 63.84 82.5982 63.8696 82.3873 63.9289C82.1763 63.9881 81.9785 64.104 81.7938 64.2764C81.6092 64.4434 81.4563 64.6912 81.3349 65.0199C81.2189 65.3485 81.1609 65.7849 81.1609 66.329L79.9266 65.731C79.9266 65.0414 80.0637 64.3949 80.338 63.7915C80.6123 63.1881 81.0237 62.7005 81.5723 62.3288C82.1262 61.957 82.8224 61.7712 83.6611 61.7712C84.331 61.7712 84.8769 61.887 85.2989 62.1187C85.7209 62.3503 86.0479 62.644 86.28 62.9995C86.5174 63.3551 86.6862 63.7268 86.7864 64.1147C86.8866 64.4973 86.9473 64.8474 86.9684 65.1653C86.9894 65.4832 87 65.7148 87 65.8603V70.7576H84.8163ZM78.9771 70.7576V59.1205H80.8919V65.1007H81.1609V70.7576H78.9771Z" fill="#0F011E"/>
<path d="M32.3806 19.8166C32.0026 19.8153 31.6235 19.8155 31.2434 19.8173C29.8042 19.8242 28.347 19.8561 26.8783 19.9041C26.2543 19.9245 25.8045 20.508 25.94 21.1174L26.0263 21.5054C26.1375 22.0055 26.6086 22.34 27.1181 22.2871C28.8206 22.1102 30.6381 21.9779 32.4555 21.9064C33.6151 21.8607 34.7676 21.8366 35.8856 21.8427C39.2394 21.8606 42.2825 22.1494 44.2734 22.9402C44.7377 23.1248 44.9548 23.6588 44.7511 24.115L44.7446 24.1295C41.9674 30.3493 41.3251 36.3498 41.7603 42.2374C41.9643 35.6019 44.5296 29.6632 47.9727 22.2587C48.251 21.6601 47.8851 20.9592 47.2326 20.8599C42.5463 20.1462 37.5694 19.8344 32.3806 19.8166ZM35.0597 23.617C34.2244 23.6177 33.3729 23.635 32.5215 23.6685C29.1563 23.801 25.801 24.1636 23.2812 24.6042C22.6281 24.7184 22.2905 25.4362 22.5923 26.0265C25.1073 30.9461 27.1642 35.8672 28.5649 40.6814C28.6573 40.9991 28.9527 41.211 29.2831 41.2275C29.7943 41.2532 30.2321 40.7759 30.0783 40.2877C28.6242 35.6704 26.9733 31.3654 24.9567 27.0664L24.9473 27.0463C24.7038 26.5273 25.018 25.9184 25.582 25.8161C28.3875 25.3068 31.2831 25.1097 34.039 25.1088C34.2228 25.1088 34.4059 25.1096 34.5883 25.1112C36.3395 25.1268 38.0272 25.2197 39.5908 25.3595C40.1371 25.4084 40.5018 25.9452 40.346 26.471L40.3391 26.4943C38.5544 32.5179 38.2029 38.9863 39.2084 45.1419C39.211 45.1576 39.2187 45.172 39.2302 45.1829C39.2502 45.2019 39.2791 45.2082 39.305 45.1988C39.4528 45.1454 39.5966 45.0915 39.7366 45.0367C40.0664 44.9076 40.2565 44.5678 40.2182 44.2157C39.5563 38.1311 39.8942 31.8679 42.3666 25.3795C42.5828 24.8121 42.2673 24.1759 41.6691 24.0712C40.1029 23.7971 38.0738 23.65 35.8887 23.622C35.6124 23.6185 35.336 23.6168 35.0597 23.617ZM49.6669 24.4754C49.2219 24.3928 48.7793 24.6268 48.5911 25.0385C47.3314 27.7942 46.2402 30.3199 45.3917 32.7546C44.9992 33.8807 46.4167 34.2954 47.0108 33.2614C48.4642 30.7319 50.1615 28.4638 51.9895 26.5837C52.5472 26.0101 52.2985 25.0234 51.5172 24.8511C50.9025 24.7155 50.2856 24.5903 49.6669 24.4754ZM21.0714 26.8314C20.8671 26.4314 20.4189 26.2189 19.9811 26.3193C18.9792 26.5493 17.991 26.8152 17.0195 27.1314C16.3099 27.3624 16.1438 28.2693 16.6913 28.7764C17.3088 29.3482 18.0506 30.0509 18.8777 30.8639C19.2793 31.2587 19.9268 31.25 20.3195 30.8463C20.7459 30.408 21.178 29.9774 21.6184 29.5631C21.9434 29.2574 22.041 28.7767 21.8446 28.3761C21.591 27.859 21.3333 27.3441 21.0714 26.8314ZM34.2958 26.8889C33.2661 26.8838 32.217 26.9066 31.1616 26.9634C30.6773 26.9895 30.2965 27.3711 30.1607 27.8368C29.9053 28.7119 29.4111 29.5544 28.8228 30.384C28.6188 30.6717 28.5702 31.043 28.703 31.3697C30.0218 34.6148 31.1784 37.926 32.228 41.4164C32.325 41.7388 32.5766 41.9912 32.8977 42.0922C33.803 42.377 34.6952 42.6883 35.531 43.0302C36.282 43.3374 37.1499 42.7305 37.0842 41.9218C36.8097 38.5413 36.9239 35.1136 37.4337 31.7422C37.4803 31.4342 37.3819 31.1234 37.1812 30.8852C36.3882 29.944 35.8903 28.9308 35.6874 27.8455C35.5902 27.3254 35.1733 26.8975 34.6442 26.8917C34.5281 26.8904 34.412 26.8895 34.2958 26.8889ZM52.3813 29.8358C51.973 29.6552 51.4937 29.7693 51.2183 30.1207C50.545 30.9801 49.8974 31.898 49.2849 32.8644C48.6562 33.8565 50.1367 34.8071 51.0187 34.0315C51.8246 33.3228 52.654 32.6692 53.5006 32.0711C54.15 31.6124 54.0895 30.6043 53.3652 30.2763C53.0378 30.128 52.7099 29.9812 52.3813 29.8358ZM23.5162 31.9642C23.2419 31.3412 22.4382 31.1824 21.9577 31.6647C21.1793 32.4461 20.4006 33.2838 19.6087 34.1196C19.1673 34.5855 19.2647 35.3422 19.8008 35.695C22.3791 37.3916 24.6124 39.3432 26.4833 41.5168C26.5536 41.5985 26.6677 41.6268 26.7693 41.591C26.8987 41.5453 26.9732 41.4082 26.9352 41.2764C26.0555 38.2227 24.9005 35.1085 23.5162 31.9642Z" fill="#330368"/>
<path d="M25.7785 50.9866C22.2266 48.892 19.7367 45.4527 18.3426 41.199C18.0705 40.3687 19.3343 39.7998 19.9699 40.3928C20.6716 41.0467 21.4396 41.6225 22.2606 42.1104C24.7286 43.5808 27.7014 44.3062 30.9394 44.2553C39.3165 44.1233 49.5336 38.8941 58.438 27.8668C58.7591 27.469 58.7229 26.884 58.3584 26.5201L56.2198 24.3858C55.7298 23.8967 55.8579 23.0668 56.4701 22.7633L66.0478 18.0155C66.7296 17.6775 67.5232 18.217 67.4798 18.9889L66.7169 32.5337C66.6684 33.3958 65.6441 33.791 65.0346 33.1828L63.6083 31.7593C63.1242 31.2761 62.3212 31.4112 62.0067 32.0157C61.8003 32.4124 61.5865 32.8078 61.3639 33.2016C52.2892 49.2557 36.323 57.2047 25.7785 50.9866Z" fill="#330368"/>
</svg>
