<svg width="28" height="28" viewBox="0 0 28 28" fill="none" xmlns="http://www.w3.org/2000/svg">
<path d="M14 28L13.8495 16.824L12.5119 27.9207L13.5502 16.792L11.0406 27.6836L13.2559 16.7284L9.60293 27.2916L12.9702 16.6338L8.21503 26.7489L12.696 16.5094L6.89268 26.0618L12.4367 16.3566L5.65086 25.238L12.195 16.1771L4.50364 24.2868L11.9739 15.9729L3.46401 23.2192L11.7756 15.7464L2.54376 22.047L11.6026 15.5L1.75332 20.7837L11.4567 15.2367L1.10163 19.4435L11.3397 14.9594L0.596092 18.0417L11.2528 14.6712L0.242422 16.594L11.197 14.3753L0.044632 15.117L11.173 14.0753L0.00496101 13.6273L11.181 13.7744L0.123859 12.1418L11.221 13.476L0.399982 10.6774L11.2924 13.1836L0.830196 9.25066L11.3945 12.9004L1.40963 7.8777L11.5262 12.6297L2.13172 6.57411L11.6858 12.3745L2.98828 5.35466L11.8717 12.1377L3.9696 4.23316L12.0817 11.9221L5.06458 3.22232L12.3135 11.7299L6.2608 2.3336L12.5643 11.5635L7.5447 1.57707L12.8314 11.4247L8.90175 0.961292L13.1118 11.3151L10.3166 0.49325L13.4022 11.2359L11.7731 0.178242L13.6994 11.188L13.2549 0.0198421L14 11.172L14.7451 0.0198421L14.3006 11.188L16.2269 0.178242L14.5978 11.2359L17.6834 0.49325L14.8882 11.3151L19.0982 0.961292L15.1686 11.4247L20.4553 1.57707L15.4357 11.5635L21.7392 2.3336L15.6865 11.7299L22.9354 3.22232L15.9183 11.9221L24.0304 4.23316L16.1283 12.1377L25.0117 5.35466L16.3142 12.3745L25.8683 6.57411L16.4738 12.6297L26.5904 7.8777L16.6055 12.9004L27.1698 9.25066L16.7076 13.1836L27.6 10.6774L16.779 13.476L27.8761 12.1418L16.819 13.7744L27.995 13.6273L16.827 14.0753L27.9554 15.117L16.803 14.3753L27.7576 16.594L16.7472 14.6712L27.4039 18.0417L16.6603 14.9594L26.8984 19.4435L16.5433 15.2367L26.2467 20.7837L16.3974 15.5L25.4562 22.047L16.2244 15.7464L24.536 23.2192L16.0261 15.9729L23.4964 24.2868L15.805 16.1771L22.3491 25.238L15.5633 16.3566L21.1073 26.0618L15.304 16.5094L19.785 26.7489L15.0298 16.6338L18.3971 27.2916L14.7441 16.7284L16.9594 27.6836L14.4498 16.792L15.4881 27.9207L14.1505 16.824L14 28Z" fill="white"/>
</svg>
